<mxfile host="Electron" agent="Mozilla/5.0 (Windows NT 10.0; Win64; x64) AppleWebKit/537.36 (KHTML, like Gecko) draw.io/26.2.2 Chrome/134.0.6998.178 Electron/35.1.2 Safari/537.36" version="26.2.2">
  <diagram name="Page-1" id="vqiDg45v7u4fN8HMaezK">
    <mxGraphModel dx="1340" dy="1229" grid="1" gridSize="10" guides="1" tooltips="1" connect="1" arrows="1" fold="1" page="1" pageScale="1" pageWidth="1654" pageHeight="1169" math="0" shadow="0">
      <root>
        <mxCell id="0" />
        <mxCell id="1" parent="0" />
        <mxCell id="7Ultl-Fw3eeUsyQAbsG5-16" value="Chatbot" style="swimlane;fontStyle=1;align=center;verticalAlign=top;childLayout=stackLayout;horizontal=1;startSize=26;horizontalStack=0;resizeParent=1;resizeParentMax=0;resizeLast=0;collapsible=1;marginBottom=0;whiteSpace=wrap;html=1;" parent="1" vertex="1">
          <mxGeometry x="60.000000000000114" y="490" width="190" height="90" as="geometry" />
        </mxCell>
        <mxCell id="7Ultl-Fw3eeUsyQAbsG5-17" value="- ContextHandler" style="text;strokeColor=none;fillColor=none;align=left;verticalAlign=top;spacingLeft=4;spacingRight=4;overflow=hidden;rotatable=0;points=[[0,0.5],[1,0.5]];portConstraint=eastwest;whiteSpace=wrap;html=1;" parent="7Ultl-Fw3eeUsyQAbsG5-16" vertex="1">
          <mxGeometry y="26" width="190" height="26" as="geometry" />
        </mxCell>
        <mxCell id="7Ultl-Fw3eeUsyQAbsG5-18" value="" style="line;strokeWidth=1;fillColor=none;align=left;verticalAlign=middle;spacingTop=-1;spacingLeft=3;spacingRight=3;rotatable=0;labelPosition=right;points=[];portConstraint=eastwest;strokeColor=inherit;" parent="7Ultl-Fw3eeUsyQAbsG5-16" vertex="1">
          <mxGeometry y="52" width="190" height="8" as="geometry" />
        </mxCell>
        <mxCell id="7Ultl-Fw3eeUsyQAbsG5-19" value="+handle(context, user_input)" style="text;strokeColor=none;fillColor=none;align=left;verticalAlign=top;spacingLeft=4;spacingRight=4;overflow=hidden;rotatable=0;points=[[0,0.5],[1,0.5]];portConstraint=eastwest;whiteSpace=wrap;html=1;" parent="7Ultl-Fw3eeUsyQAbsG5-16" vertex="1">
          <mxGeometry y="60" width="190" height="30" as="geometry" />
        </mxCell>
        <mxCell id="7Ultl-Fw3eeUsyQAbsG5-22" value="" style="endArrow=open;startArrow=diamondThin;endFill=0;startFill=0;endSize=13;html=1;rounded=0;targetPerimeterSpacing=11;sourcePerimeterSpacing=13;startSize=23;" parent="1" edge="1">
          <mxGeometry width="160" relative="1" as="geometry">
            <mxPoint x="250" y="559.5" as="sourcePoint" />
            <mxPoint x="410" y="559.5" as="targetPoint" />
          </mxGeometry>
        </mxCell>
        <mxCell id="7Ultl-Fw3eeUsyQAbsG5-28" value="SentimentObserver" style="swimlane;fontStyle=1;align=center;verticalAlign=top;childLayout=stackLayout;horizontal=1;startSize=26;horizontalStack=0;resizeParent=1;resizeParentMax=0;resizeLast=0;collapsible=1;marginBottom=0;whiteSpace=wrap;html=1;" parent="1" vertex="1">
          <mxGeometry x="830" y="989.9999999999999" width="160" height="100" as="geometry" />
        </mxCell>
        <mxCell id="7Ultl-Fw3eeUsyQAbsG5-29" value="- LiveAgentNotifier[]" style="text;strokeColor=none;fillColor=none;align=left;verticalAlign=top;spacingLeft=4;spacingRight=4;overflow=hidden;rotatable=0;points=[[0,0.5],[1,0.5]];portConstraint=eastwest;whiteSpace=wrap;html=1;" parent="7Ultl-Fw3eeUsyQAbsG5-28" vertex="1">
          <mxGeometry y="26" width="160" height="26" as="geometry" />
        </mxCell>
        <mxCell id="7Ultl-Fw3eeUsyQAbsG5-30" value="" style="line;strokeWidth=1;fillColor=none;align=left;verticalAlign=middle;spacingTop=-1;spacingLeft=3;spacingRight=3;rotatable=0;labelPosition=right;points=[];portConstraint=eastwest;strokeColor=inherit;" parent="7Ultl-Fw3eeUsyQAbsG5-28" vertex="1">
          <mxGeometry y="52" width="160" height="8" as="geometry" />
        </mxCell>
        <mxCell id="7Ultl-Fw3eeUsyQAbsG5-31" value="...&lt;div&gt;check_sentiment()&lt;/div&gt;" style="text;strokeColor=none;fillColor=none;align=left;verticalAlign=top;spacingLeft=4;spacingRight=4;overflow=hidden;rotatable=0;points=[[0,0.5],[1,0.5]];portConstraint=eastwest;whiteSpace=wrap;html=1;" parent="7Ultl-Fw3eeUsyQAbsG5-28" vertex="1">
          <mxGeometry y="60" width="160" height="40" as="geometry" />
        </mxCell>
        <mxCell id="7Ultl-Fw3eeUsyQAbsG5-33" value="" style="endArrow=block;html=1;rounded=0;endFill=0;dashed=1;entryX=0.479;entryY=1.05;entryDx=0;entryDy=0;entryPerimeter=0;startSize=6;endSize=13;" parent="1" source="6h2JxWlPkbT7aXy2Z4n4-30" edge="1">
          <mxGeometry width="50" height="50" relative="1" as="geometry">
            <mxPoint x="494.45000000000005" y="718" as="sourcePoint" />
            <mxPoint x="494.09000000000015" y="610" as="targetPoint" />
          </mxGeometry>
        </mxCell>
        <mxCell id="7Ultl-Fw3eeUsyQAbsG5-34" value="" style="endArrow=none;html=1;rounded=0;startFill=0;dashed=1;" parent="1" edge="1">
          <mxGeometry width="50" height="50" relative="1" as="geometry">
            <mxPoint x="320" y="665" as="sourcePoint" />
            <mxPoint x="680" y="665" as="targetPoint" />
          </mxGeometry>
        </mxCell>
        <mxCell id="7Ultl-Fw3eeUsyQAbsG5-35" value="" style="endArrow=none;html=1;rounded=0;startFill=0;dashed=1;" parent="1" edge="1">
          <mxGeometry width="50" height="50" relative="1" as="geometry">
            <mxPoint x="319.5" y="665" as="sourcePoint" />
            <mxPoint x="319.5" y="705" as="targetPoint" />
          </mxGeometry>
        </mxCell>
        <mxCell id="7Ultl-Fw3eeUsyQAbsG5-36" value="" style="endArrow=none;html=1;rounded=0;startFill=0;dashed=1;" parent="1" edge="1">
          <mxGeometry width="50" height="50" relative="1" as="geometry">
            <mxPoint x="680" y="665" as="sourcePoint" />
            <mxPoint x="680" y="705" as="targetPoint" />
          </mxGeometry>
        </mxCell>
        <mxCell id="7Ultl-Fw3eeUsyQAbsG5-53" value="«interface»&lt;br&gt;&lt;div style=&quot;font-weight: 700;&quot;&gt;ContextHandler&lt;/div&gt;" style="html=1;whiteSpace=wrap;" parent="1" vertex="1">
          <mxGeometry x="410" y="525" width="170" height="50" as="geometry" />
        </mxCell>
        <mxCell id="7Ultl-Fw3eeUsyQAbsG5-54" value="&lt;span style=&quot;text-align: left;&quot;&gt;+handle(context, user_input)&lt;/span&gt;" style="html=1;whiteSpace=wrap;" parent="1" vertex="1">
          <mxGeometry x="410" y="575" width="170" height="35" as="geometry" />
        </mxCell>
        <mxCell id="6h2JxWlPkbT7aXy2Z4n4-10" style="edgeStyle=orthogonalEdgeStyle;rounded=0;orthogonalLoop=1;jettySize=auto;html=1;" parent="1" source="6h2JxWlPkbT7aXy2Z4n4-5" edge="1">
          <mxGeometry relative="1" as="geometry">
            <mxPoint x="479.9999999999999" y="190" as="targetPoint" />
          </mxGeometry>
        </mxCell>
        <mxCell id="6h2JxWlPkbT7aXy2Z4n4-5" value="Chabot" style="swimlane;fontStyle=1;align=center;verticalAlign=top;childLayout=stackLayout;horizontal=1;startSize=26;horizontalStack=0;resizeParent=1;resizeParentMax=0;resizeLast=0;collapsible=1;marginBottom=0;whiteSpace=wrap;html=1;" parent="1" vertex="1">
          <mxGeometry x="170" y="100" width="200" height="180" as="geometry" />
        </mxCell>
        <mxCell id="6h2JxWlPkbT7aXy2Z4n4-6" value="- json_manager: JsonManager&lt;div&gt;- db_manager: DBManager&lt;/div&gt;&lt;div&gt;- handlers: dict&lt;/div&gt;&lt;div&gt;- observer: SentimentObserver&amp;nbsp;&lt;/div&gt;&lt;div&gt;- notifier: LiveAgentNotifier&amp;nbsp;&lt;br&gt;&lt;div&gt;&lt;br&gt;&lt;/div&gt;&lt;/div&gt;" style="text;strokeColor=none;fillColor=none;align=left;verticalAlign=top;spacingLeft=4;spacingRight=4;overflow=hidden;rotatable=0;points=[[0,0.5],[1,0.5]];portConstraint=eastwest;whiteSpace=wrap;html=1;" parent="6h2JxWlPkbT7aXy2Z4n4-5" vertex="1">
          <mxGeometry y="26" width="200" height="84" as="geometry" />
        </mxCell>
        <mxCell id="6h2JxWlPkbT7aXy2Z4n4-7" value="" style="line;strokeWidth=1;fillColor=none;align=left;verticalAlign=middle;spacingTop=-1;spacingLeft=3;spacingRight=3;rotatable=0;labelPosition=right;points=[];portConstraint=eastwest;strokeColor=inherit;" parent="6h2JxWlPkbT7aXy2Z4n4-5" vertex="1">
          <mxGeometry y="110" width="200" height="8" as="geometry" />
        </mxCell>
        <mxCell id="6h2JxWlPkbT7aXy2Z4n4-8" value="+ __init__()&lt;div&gt;+ start_chat()&lt;/div&gt;&lt;div&gt;+ process_input()&lt;/div&gt;" style="text;strokeColor=none;fillColor=none;align=left;verticalAlign=top;spacingLeft=4;spacingRight=4;overflow=hidden;rotatable=0;points=[[0,0.5],[1,0.5]];portConstraint=eastwest;whiteSpace=wrap;html=1;" parent="6h2JxWlPkbT7aXy2Z4n4-5" vertex="1">
          <mxGeometry y="118" width="200" height="62" as="geometry" />
        </mxCell>
        <mxCell id="6h2JxWlPkbT7aXy2Z4n4-11" value="JsonManager" style="swimlane;fontStyle=1;align=center;verticalAlign=top;childLayout=stackLayout;horizontal=1;startSize=26;horizontalStack=0;resizeParent=1;resizeParentMax=0;resizeLast=0;collapsible=1;marginBottom=0;whiteSpace=wrap;html=1;" parent="1" vertex="1">
          <mxGeometry x="480" y="100" width="200" height="120" as="geometry" />
        </mxCell>
        <mxCell id="6h2JxWlPkbT7aXy2Z4n4-12" value="-instance: JsonManager" style="text;strokeColor=none;fillColor=none;align=left;verticalAlign=top;spacingLeft=4;spacingRight=4;overflow=hidden;rotatable=0;points=[[0,0.5],[1,0.5]];portConstraint=eastwest;whiteSpace=wrap;html=1;" parent="6h2JxWlPkbT7aXy2Z4n4-11" vertex="1">
          <mxGeometry y="26" width="200" height="24" as="geometry" />
        </mxCell>
        <mxCell id="6h2JxWlPkbT7aXy2Z4n4-13" value="" style="line;strokeWidth=1;fillColor=none;align=left;verticalAlign=middle;spacingTop=-1;spacingLeft=3;spacingRight=3;rotatable=0;labelPosition=right;points=[];portConstraint=eastwest;strokeColor=inherit;" parent="6h2JxWlPkbT7aXy2Z4n4-11" vertex="1">
          <mxGeometry y="50" width="200" height="20" as="geometry" />
        </mxCell>
        <mxCell id="6h2JxWlPkbT7aXy2Z4n4-14" value="- JsonManager()&lt;div&gt;+getInstance(): JsonManager&lt;/div&gt;" style="text;strokeColor=none;fillColor=none;align=left;verticalAlign=top;spacingLeft=4;spacingRight=4;overflow=hidden;rotatable=0;points=[[0,0.5],[1,0.5]];portConstraint=eastwest;whiteSpace=wrap;html=1;" parent="6h2JxWlPkbT7aXy2Z4n4-11" vertex="1">
          <mxGeometry y="70" width="200" height="50" as="geometry" />
        </mxCell>
        <mxCell id="6h2JxWlPkbT7aXy2Z4n4-18" value="" style="endArrow=classic;html=1;rounded=0;entryX=1.012;entryY=-0.38;entryDx=0;entryDy=0;entryPerimeter=0;" parent="1" edge="1">
          <mxGeometry width="50" height="50" relative="1" as="geometry">
            <mxPoint x="787.6" y="120.12" as="sourcePoint" />
            <mxPoint x="679.9999999999999" y="120.00000000000011" as="targetPoint" />
          </mxGeometry>
        </mxCell>
        <mxCell id="6h2JxWlPkbT7aXy2Z4n4-19" value="" style="endArrow=none;html=1;rounded=0;exitX=1.018;exitY=1.194;exitDx=0;exitDy=0;exitPerimeter=0;edgeStyle=elbowEdgeStyle;elbow=vertical;" parent="1" edge="1">
          <mxGeometry width="50" height="50" relative="1" as="geometry">
            <mxPoint x="679.9999999999999" y="164.65599999999995" as="sourcePoint" />
            <mxPoint x="786" y="120" as="targetPoint" />
          </mxGeometry>
        </mxCell>
        <mxCell id="6h2JxWlPkbT7aXy2Z4n4-21" value="" style="endArrow=none;dashed=1;html=1;strokeWidth=1;rounded=0;entryX=0.187;entryY=1.062;entryDx=0;entryDy=0;entryPerimeter=0;" parent="1" edge="1">
          <mxGeometry width="50" height="50" relative="1" as="geometry">
            <mxPoint x="517" y="266.9" as="sourcePoint" />
            <mxPoint x="517.4" y="220" as="targetPoint" />
          </mxGeometry>
        </mxCell>
        <mxCell id="6h2JxWlPkbT7aXy2Z4n4-23" value="&lt;font style=&quot;font-size: 8px;&quot;&gt;if (instance == null) {&lt;/font&gt;&lt;div&gt;&lt;font style=&quot;font-size: 8px;&quot;&gt;instance = new JsonManager()&lt;/font&gt;&lt;/div&gt;&lt;div&gt;&lt;font style=&quot;font-size: 8px;&quot;&gt;}&lt;/font&gt;&lt;/div&gt;&lt;div&gt;&lt;span style=&quot;font-size: 8px; background-color: transparent; color: light-dark(rgb(0, 0, 0), rgb(255, 255, 255));&quot;&gt;return instance&amp;nbsp;&lt;/span&gt;&lt;/div&gt;" style="whiteSpace=wrap;html=1;shape=mxgraph.basic.document;align=left;" parent="1" vertex="1">
          <mxGeometry x="470" y="260" width="170" height="70" as="geometry" />
        </mxCell>
        <mxCell id="6h2JxWlPkbT7aXy2Z4n4-28" value="&lt;b&gt;OrderHandler&lt;/b&gt;" style="html=1;whiteSpace=wrap;" parent="1" vertex="1">
          <mxGeometry x="270" y="697" width="110" height="43" as="geometry" />
        </mxCell>
        <mxCell id="6h2JxWlPkbT7aXy2Z4n4-30" value="&lt;b&gt;RefundHandler&lt;/b&gt;" style="html=1;whiteSpace=wrap;" parent="1" vertex="1">
          <mxGeometry x="440" y="700" width="110" height="40" as="geometry" />
        </mxCell>
        <mxCell id="6h2JxWlPkbT7aXy2Z4n4-33" value="&lt;b&gt;StockHandler&lt;/b&gt;" style="html=1;whiteSpace=wrap;" parent="1" vertex="1">
          <mxGeometry x="620" y="700" width="110" height="43" as="geometry" />
        </mxCell>
        <mxCell id="6h2JxWlPkbT7aXy2Z4n4-35" value="LiveAgentNotifier" style="swimlane;fontStyle=1;align=center;verticalAlign=top;childLayout=stackLayout;horizontal=1;startSize=26;horizontalStack=0;resizeParent=1;resizeParentMax=0;resizeLast=0;collapsible=1;marginBottom=0;whiteSpace=wrap;html=1;" parent="1" vertex="1">
          <mxGeometry x="1310" y="830" width="160" height="180" as="geometry" />
        </mxCell>
        <mxCell id="6h2JxWlPkbT7aXy2Z4n4-36" value="..." style="text;strokeColor=none;fillColor=none;align=left;verticalAlign=top;spacingLeft=4;spacingRight=4;overflow=hidden;rotatable=0;points=[[0,0.5],[1,0.5]];portConstraint=eastwest;whiteSpace=wrap;html=1;" parent="6h2JxWlPkbT7aXy2Z4n4-35" vertex="1">
          <mxGeometry y="26" width="160" height="26" as="geometry" />
        </mxCell>
        <mxCell id="6h2JxWlPkbT7aXy2Z4n4-37" value="" style="line;strokeWidth=1;fillColor=none;align=left;verticalAlign=middle;spacingTop=-1;spacingLeft=3;spacingRight=3;rotatable=0;labelPosition=right;points=[];portConstraint=eastwest;strokeColor=inherit;" parent="6h2JxWlPkbT7aXy2Z4n4-35" vertex="1">
          <mxGeometry y="52" width="160" height="8" as="geometry" />
        </mxCell>
        <mxCell id="6h2JxWlPkbT7aXy2Z4n4-38" value="+ notified()" style="text;strokeColor=none;fillColor=none;align=left;verticalAlign=top;spacingLeft=4;spacingRight=4;overflow=hidden;rotatable=0;points=[[0,0.5],[1,0.5]];portConstraint=eastwest;whiteSpace=wrap;html=1;" parent="6h2JxWlPkbT7aXy2Z4n4-35" vertex="1">
          <mxGeometry y="60" width="160" height="30" as="geometry" />
        </mxCell>
        <mxCell id="6h2JxWlPkbT7aXy2Z4n4-39" value="LiveAgentNotifier" style="swimlane;fontStyle=1;align=center;verticalAlign=top;childLayout=stackLayout;horizontal=1;startSize=26;horizontalStack=0;resizeParent=1;resizeParentMax=0;resizeLast=0;collapsible=1;marginBottom=0;whiteSpace=wrap;html=1;" parent="6h2JxWlPkbT7aXy2Z4n4-35" vertex="1">
          <mxGeometry y="90" width="160" height="90" as="geometry" />
        </mxCell>
        <mxCell id="6h2JxWlPkbT7aXy2Z4n4-40" value="..." style="text;strokeColor=none;fillColor=none;align=left;verticalAlign=top;spacingLeft=4;spacingRight=4;overflow=hidden;rotatable=0;points=[[0,0.5],[1,0.5]];portConstraint=eastwest;whiteSpace=wrap;html=1;" parent="6h2JxWlPkbT7aXy2Z4n4-39" vertex="1">
          <mxGeometry y="26" width="160" height="26" as="geometry" />
        </mxCell>
        <mxCell id="6h2JxWlPkbT7aXy2Z4n4-41" value="" style="line;strokeWidth=1;fillColor=none;align=left;verticalAlign=middle;spacingTop=-1;spacingLeft=3;spacingRight=3;rotatable=0;labelPosition=right;points=[];portConstraint=eastwest;strokeColor=inherit;" parent="6h2JxWlPkbT7aXy2Z4n4-39" vertex="1">
          <mxGeometry y="52" width="160" height="8" as="geometry" />
        </mxCell>
        <mxCell id="6h2JxWlPkbT7aXy2Z4n4-42" value="+ notified()" style="text;strokeColor=none;fillColor=none;align=left;verticalAlign=top;spacingLeft=4;spacingRight=4;overflow=hidden;rotatable=0;points=[[0,0.5],[1,0.5]];portConstraint=eastwest;whiteSpace=wrap;html=1;" parent="6h2JxWlPkbT7aXy2Z4n4-39" vertex="1">
          <mxGeometry y="60" width="160" height="30" as="geometry" />
        </mxCell>
        <mxCell id="6h2JxWlPkbT7aXy2Z4n4-43" value="LiveAgentNotifier" style="swimlane;fontStyle=1;align=center;verticalAlign=top;childLayout=stackLayout;horizontal=1;startSize=26;horizontalStack=0;resizeParent=1;resizeParentMax=0;resizeLast=0;collapsible=1;marginBottom=0;whiteSpace=wrap;html=1;" parent="1" vertex="1">
          <mxGeometry x="1210" y="969.9999999999999" width="160" height="90" as="geometry" />
        </mxCell>
        <mxCell id="6h2JxWlPkbT7aXy2Z4n4-44" value="..." style="text;strokeColor=none;fillColor=none;align=left;verticalAlign=top;spacingLeft=4;spacingRight=4;overflow=hidden;rotatable=0;points=[[0,0.5],[1,0.5]];portConstraint=eastwest;whiteSpace=wrap;html=1;" parent="6h2JxWlPkbT7aXy2Z4n4-43" vertex="1">
          <mxGeometry y="26" width="160" height="26" as="geometry" />
        </mxCell>
        <mxCell id="6h2JxWlPkbT7aXy2Z4n4-45" value="" style="line;strokeWidth=1;fillColor=none;align=left;verticalAlign=middle;spacingTop=-1;spacingLeft=3;spacingRight=3;rotatable=0;labelPosition=right;points=[];portConstraint=eastwest;strokeColor=inherit;" parent="6h2JxWlPkbT7aXy2Z4n4-43" vertex="1">
          <mxGeometry y="52" width="160" height="8" as="geometry" />
        </mxCell>
        <mxCell id="6h2JxWlPkbT7aXy2Z4n4-46" value="+ notified()" style="text;strokeColor=none;fillColor=none;align=left;verticalAlign=top;spacingLeft=4;spacingRight=4;overflow=hidden;rotatable=0;points=[[0,0.5],[1,0.5]];portConstraint=eastwest;whiteSpace=wrap;html=1;" parent="6h2JxWlPkbT7aXy2Z4n4-43" vertex="1">
          <mxGeometry y="60" width="160" height="30" as="geometry" />
        </mxCell>
        <mxCell id="6h2JxWlPkbT7aXy2Z4n4-51" value="LiveAgentNotifier" style="swimlane;fontStyle=1;align=center;verticalAlign=top;childLayout=stackLayout;horizontal=1;startSize=26;horizontalStack=0;resizeParent=1;resizeParentMax=0;resizeLast=0;collapsible=1;marginBottom=0;whiteSpace=wrap;html=1;" parent="1" vertex="1">
          <mxGeometry x="1380" y="899.9999999999999" width="160" height="90" as="geometry" />
        </mxCell>
        <mxCell id="6h2JxWlPkbT7aXy2Z4n4-52" value="..." style="text;strokeColor=none;fillColor=none;align=left;verticalAlign=top;spacingLeft=4;spacingRight=4;overflow=hidden;rotatable=0;points=[[0,0.5],[1,0.5]];portConstraint=eastwest;whiteSpace=wrap;html=1;" parent="6h2JxWlPkbT7aXy2Z4n4-51" vertex="1">
          <mxGeometry y="26" width="160" height="26" as="geometry" />
        </mxCell>
        <mxCell id="6h2JxWlPkbT7aXy2Z4n4-53" value="" style="line;strokeWidth=1;fillColor=none;align=left;verticalAlign=middle;spacingTop=-1;spacingLeft=3;spacingRight=3;rotatable=0;labelPosition=right;points=[];portConstraint=eastwest;strokeColor=inherit;" parent="6h2JxWlPkbT7aXy2Z4n4-51" vertex="1">
          <mxGeometry y="52" width="160" height="8" as="geometry" />
        </mxCell>
        <mxCell id="6h2JxWlPkbT7aXy2Z4n4-54" value="+ notified()" style="text;strokeColor=none;fillColor=none;align=left;verticalAlign=top;spacingLeft=4;spacingRight=4;overflow=hidden;rotatable=0;points=[[0,0.5],[1,0.5]];portConstraint=eastwest;whiteSpace=wrap;html=1;" parent="6h2JxWlPkbT7aXy2Z4n4-51" vertex="1">
          <mxGeometry y="60" width="160" height="30" as="geometry" />
        </mxCell>
        <mxCell id="6h2JxWlPkbT7aXy2Z4n4-59" value="LiveAgentNotifier" style="swimlane;fontStyle=1;align=center;verticalAlign=top;childLayout=stackLayout;horizontal=1;startSize=26;horizontalStack=0;resizeParent=1;resizeParentMax=0;resizeLast=0;collapsible=1;marginBottom=0;whiteSpace=wrap;html=1;" parent="1" vertex="1">
          <mxGeometry x="1270" y="790" width="160" height="90" as="geometry" />
        </mxCell>
        <mxCell id="6h2JxWlPkbT7aXy2Z4n4-60" value="..." style="text;strokeColor=none;fillColor=none;align=left;verticalAlign=top;spacingLeft=4;spacingRight=4;overflow=hidden;rotatable=0;points=[[0,0.5],[1,0.5]];portConstraint=eastwest;whiteSpace=wrap;html=1;" parent="6h2JxWlPkbT7aXy2Z4n4-59" vertex="1">
          <mxGeometry y="26" width="160" height="26" as="geometry" />
        </mxCell>
        <mxCell id="6h2JxWlPkbT7aXy2Z4n4-61" value="" style="line;strokeWidth=1;fillColor=none;align=left;verticalAlign=middle;spacingTop=-1;spacingLeft=3;spacingRight=3;rotatable=0;labelPosition=right;points=[];portConstraint=eastwest;strokeColor=inherit;" parent="6h2JxWlPkbT7aXy2Z4n4-59" vertex="1">
          <mxGeometry y="52" width="160" height="8" as="geometry" />
        </mxCell>
        <mxCell id="6h2JxWlPkbT7aXy2Z4n4-62" value="+ notified()" style="text;strokeColor=none;fillColor=none;align=left;verticalAlign=top;spacingLeft=4;spacingRight=4;overflow=hidden;rotatable=0;points=[[0,0.5],[1,0.5]];portConstraint=eastwest;whiteSpace=wrap;html=1;" parent="6h2JxWlPkbT7aXy2Z4n4-59" vertex="1">
          <mxGeometry y="60" width="160" height="30" as="geometry" />
        </mxCell>
        <mxCell id="6h2JxWlPkbT7aXy2Z4n4-64" value="" style="endArrow=none;dashed=1;html=1;rounded=0;" parent="1" edge="1">
          <mxGeometry width="50" height="50" relative="1" as="geometry">
            <mxPoint x="1126.3636363636365" y="860" as="sourcePoint" />
            <mxPoint x="1180" y="1160" as="targetPoint" />
          </mxGeometry>
        </mxCell>
        <mxCell id="6h2JxWlPkbT7aXy2Z4n4-65" value="" style="endArrow=none;dashed=1;html=1;rounded=0;" parent="1" edge="1">
          <mxGeometry width="50" height="50" relative="1" as="geometry">
            <mxPoint x="1480" y="1160" as="sourcePoint" />
            <mxPoint x="1180" y="1160" as="targetPoint" />
          </mxGeometry>
        </mxCell>
        <mxCell id="6h2JxWlPkbT7aXy2Z4n4-66" value="" style="endArrow=none;dashed=1;html=1;rounded=0;" parent="1" edge="1">
          <mxGeometry width="50" height="50" relative="1" as="geometry">
            <mxPoint x="1640.3636363636365" y="860" as="sourcePoint" />
            <mxPoint x="1480" y="1160" as="targetPoint" />
          </mxGeometry>
        </mxCell>
        <mxCell id="6h2JxWlPkbT7aXy2Z4n4-67" value="" style="endArrow=none;dashed=1;html=1;dashPattern=1 3;strokeWidth=2;rounded=0;" parent="1" edge="1">
          <mxGeometry width="50" height="50" relative="1" as="geometry">
            <mxPoint x="1130" y="860" as="sourcePoint" />
            <mxPoint x="1180" y="750" as="targetPoint" />
          </mxGeometry>
        </mxCell>
        <mxCell id="6h2JxWlPkbT7aXy2Z4n4-68" value="" style="endArrow=none;dashed=1;html=1;dashPattern=1 3;strokeWidth=2;rounded=0;" parent="1" edge="1">
          <mxGeometry width="50" height="50" relative="1" as="geometry">
            <mxPoint x="1180" y="760" as="sourcePoint" />
            <mxPoint x="1550" y="760" as="targetPoint" />
          </mxGeometry>
        </mxCell>
        <mxCell id="6h2JxWlPkbT7aXy2Z4n4-69" value="" style="endArrow=none;dashed=1;html=1;dashPattern=1 3;strokeWidth=2;rounded=0;" parent="1" edge="1">
          <mxGeometry width="50" height="50" relative="1" as="geometry">
            <mxPoint x="1640" y="860" as="sourcePoint" />
            <mxPoint x="1550" y="760" as="targetPoint" />
          </mxGeometry>
        </mxCell>
        <mxCell id="6h2JxWlPkbT7aXy2Z4n4-70" value="" style="html=1;verticalAlign=bottom;endArrow=oval;dashed=1;endSize=8;curved=0;rounded=0;endFill=0;" parent="1" edge="1">
          <mxGeometry relative="1" as="geometry">
            <mxPoint x="1130" y="889.9999999999999" as="sourcePoint" />
            <mxPoint x="960" y="1030" as="targetPoint" />
          </mxGeometry>
        </mxCell>
        <mxCell id="6h2JxWlPkbT7aXy2Z4n4-72" value="" style="endArrow=open;html=1;rounded=0;exitX=1;exitY=0.5;exitDx=0;exitDy=0;entryX=0;entryY=0.5;entryDx=0;entryDy=0;endFill=0;" parent="1" source="7Ultl-Fw3eeUsyQAbsG5-31" target="6h2JxWlPkbT7aXy2Z4n4-62" edge="1">
          <mxGeometry width="50" height="50" relative="1" as="geometry">
            <mxPoint x="1140" y="1080" as="sourcePoint" />
            <mxPoint x="1190" y="1030" as="targetPoint" />
          </mxGeometry>
        </mxCell>
        <mxCell id="6h2JxWlPkbT7aXy2Z4n4-73" value="" style="endArrow=open;html=1;rounded=0;exitX=1;exitY=0.5;exitDx=0;exitDy=0;entryX=0;entryY=0.5;entryDx=0;entryDy=0;endFill=0;" parent="1" source="7Ultl-Fw3eeUsyQAbsG5-31" target="6h2JxWlPkbT7aXy2Z4n4-38" edge="1">
          <mxGeometry width="50" height="50" relative="1" as="geometry">
            <mxPoint x="1000" y="1080" as="sourcePoint" />
            <mxPoint x="1280" y="875" as="targetPoint" />
          </mxGeometry>
        </mxCell>
        <mxCell id="6h2JxWlPkbT7aXy2Z4n4-74" value="" style="endArrow=open;html=1;rounded=0;entryX=0.532;entryY=-0.097;entryDx=0;entryDy=0;endFill=0;entryPerimeter=0;" parent="1" target="6h2JxWlPkbT7aXy2Z4n4-40" edge="1">
          <mxGeometry width="50" height="50" relative="1" as="geometry">
            <mxPoint x="990" y="1070" as="sourcePoint" />
            <mxPoint x="1320" y="914.9999999999999" as="targetPoint" />
          </mxGeometry>
        </mxCell>
        <mxCell id="6h2JxWlPkbT7aXy2Z4n4-75" value="" style="endArrow=open;html=1;rounded=0;entryX=0.063;entryY=-0.333;entryDx=0;entryDy=0;endFill=0;entryPerimeter=0;" parent="1" target="6h2JxWlPkbT7aXy2Z4n4-46" edge="1">
          <mxGeometry width="50" height="50" relative="1" as="geometry">
            <mxPoint x="990" y="1070" as="sourcePoint" />
            <mxPoint x="1430" y="1019.9999999999999" as="targetPoint" />
          </mxGeometry>
        </mxCell>
        <mxCell id="HEydUZoRCnZwS2w4KeLg-2" style="edgeStyle=orthogonalEdgeStyle;rounded=0;orthogonalLoop=1;jettySize=auto;html=1;endArrow=open;endFill=0;" edge="1" parent="1" source="HEydUZoRCnZwS2w4KeLg-1">
          <mxGeometry relative="1" as="geometry">
            <mxPoint x="1310" y="159" as="targetPoint" />
          </mxGeometry>
        </mxCell>
        <mxCell id="HEydUZoRCnZwS2w4KeLg-1" value="&lt;b&gt;Chatbot&lt;/b&gt;" style="html=1;whiteSpace=wrap;" vertex="1" parent="1">
          <mxGeometry x="1040" y="134" width="130" height="50" as="geometry" />
        </mxCell>
        <mxCell id="HEydUZoRCnZwS2w4KeLg-3" value="DBManager" style="swimlane;fontStyle=1;align=center;verticalAlign=top;childLayout=stackLayout;horizontal=1;startSize=26;horizontalStack=0;resizeParent=1;resizeParentMax=0;resizeLast=0;collapsible=1;marginBottom=0;whiteSpace=wrap;html=1;" vertex="1" parent="1">
          <mxGeometry x="1310" y="110" width="200" height="150" as="geometry" />
        </mxCell>
        <mxCell id="HEydUZoRCnZwS2w4KeLg-4" value="-order_data&lt;div&gt;-stock_data&lt;/div&gt;" style="text;strokeColor=none;fillColor=none;align=left;verticalAlign=top;spacingLeft=4;spacingRight=4;overflow=hidden;rotatable=0;points=[[0,0.5],[1,0.5]];portConstraint=eastwest;whiteSpace=wrap;html=1;" vertex="1" parent="HEydUZoRCnZwS2w4KeLg-3">
          <mxGeometry y="26" width="200" height="34" as="geometry" />
        </mxCell>
        <mxCell id="HEydUZoRCnZwS2w4KeLg-5" value="" style="line;strokeWidth=1;fillColor=none;align=left;verticalAlign=middle;spacingTop=-1;spacingLeft=3;spacingRight=3;rotatable=0;labelPosition=right;points=[];portConstraint=eastwest;strokeColor=inherit;" vertex="1" parent="HEydUZoRCnZwS2w4KeLg-3">
          <mxGeometry y="60" width="200" height="20" as="geometry" />
        </mxCell>
        <mxCell id="HEydUZoRCnZwS2w4KeLg-6" value="+get_orders()&lt;div&gt;+get_stock()&lt;/div&gt;&lt;div&gt;+initiate_refund()&lt;/div&gt;&lt;div&gt;+check_stock()&lt;br&gt;&lt;div&gt;&lt;br&gt;&lt;/div&gt;&lt;/div&gt;" style="text;strokeColor=none;fillColor=none;align=left;verticalAlign=top;spacingLeft=4;spacingRight=4;overflow=hidden;rotatable=0;points=[[0,0.5],[1,0.5]];portConstraint=eastwest;whiteSpace=wrap;html=1;" vertex="1" parent="HEydUZoRCnZwS2w4KeLg-3">
          <mxGeometry y="80" width="200" height="70" as="geometry" />
        </mxCell>
        <mxCell id="HEydUZoRCnZwS2w4KeLg-29" value="" style="endArrow=none;dashed=1;html=1;rounded=0;" edge="1" parent="1">
          <mxGeometry width="50" height="50" relative="1" as="geometry">
            <mxPoint x="1050.0036363636364" y="410" as="sourcePoint" />
            <mxPoint x="1090" y="620" as="targetPoint" />
          </mxGeometry>
        </mxCell>
        <mxCell id="HEydUZoRCnZwS2w4KeLg-30" value="" style="endArrow=none;dashed=1;html=1;rounded=0;" edge="1" parent="1">
          <mxGeometry width="50" height="50" relative="1" as="geometry">
            <mxPoint x="1430" y="620" as="sourcePoint" />
            <mxPoint x="1090" y="620" as="targetPoint" />
          </mxGeometry>
        </mxCell>
        <mxCell id="HEydUZoRCnZwS2w4KeLg-31" value="" style="endArrow=none;dashed=1;html=1;dashPattern=1 3;strokeWidth=2;rounded=0;" edge="1" parent="1">
          <mxGeometry width="50" height="50" relative="1" as="geometry">
            <mxPoint x="1050" y="420" as="sourcePoint" />
            <mxPoint x="1100" y="310" as="targetPoint" />
          </mxGeometry>
        </mxCell>
        <mxCell id="HEydUZoRCnZwS2w4KeLg-32" value="" style="endArrow=none;dashed=1;html=1;dashPattern=1 3;strokeWidth=2;rounded=0;" edge="1" parent="1">
          <mxGeometry width="50" height="50" relative="1" as="geometry">
            <mxPoint x="1103.6399999999999" y="310" as="sourcePoint" />
            <mxPoint x="1473.6399999999999" y="310" as="targetPoint" />
          </mxGeometry>
        </mxCell>
        <mxCell id="HEydUZoRCnZwS2w4KeLg-33" value="" style="endArrow=none;dashed=1;html=1;rounded=0;" edge="1" parent="1">
          <mxGeometry width="50" height="50" relative="1" as="geometry">
            <mxPoint x="1480" y="310" as="sourcePoint" />
            <mxPoint x="1430" y="630" as="targetPoint" />
          </mxGeometry>
        </mxCell>
        <mxCell id="HEydUZoRCnZwS2w4KeLg-34" value="&lt;b&gt;OrderData&lt;/b&gt;&lt;span style=&quot;color: rgba(0, 0, 0, 0); font-family: monospace; font-size: 0px; text-align: start; text-wrap-mode: nowrap;&quot;&gt;%3CmxGraphModel%3E%3Croot%3E%3CmxCell%20id%3D%220%22%2F%3E%3CmxCell%20id%3D%221%22%20parent%3D%220%22%2F%3E%3CmxCell%20id%3D%222%22%20value%3D%22%26lt%3Bb%26gt%3BChatbot%26lt%3B%2Fb%26gt%3B%22%20style%3D%22html%3D1%3BwhiteSpace%3Dwrap%3B%22%20vertex%3D%221%22%20parent%3D%221%22%3E%3CmxGeometry%20x%3D%22980%22%20y%3D%22534%22%20width%3D%22130%22%20height%3D%2250%22%20as%3D%22geometry%22%2F%3E%3C%2FmxCell%3E%3C%2Froot%3E%3C%2FmxGraphModel%3E&lt;/span&gt;" style="html=1;whiteSpace=wrap;" vertex="1" parent="1">
          <mxGeometry x="1167.4" y="410" width="130" height="50" as="geometry" />
        </mxCell>
        <mxCell id="HEydUZoRCnZwS2w4KeLg-35" value="&lt;b&gt;StockData&lt;/b&gt;&lt;span style=&quot;color: rgba(0, 0, 0, 0); font-family: monospace; font-size: 0px; text-align: start; text-wrap-mode: nowrap;&quot;&gt;%3CmxGraphModel%3E%3Croot%3E%3CmxCell%20id%3D%220%22%2F%3E%3CmxCell%20id%3D%221%22%20parent%3D%220%22%2F%3E%3CmxCell%20id%3D%222%22%20value%3D%22%26lt%3Bb%26gt%3BChatbot%26lt%3B%2Fb%26gt%3B%22%20style%3D%22html%3D1%3BwhiteSpace%3Dwrap%3B%22%20vertex%3D%221%22%20parent%3D%221%22%3E%3CmxGeometry%20x%3D%22980%22%20y%3D%22534%22%20width%3D%22130%22%20height%3D%2250%22%20as%3D%22geometry%22%2F%3E%3C%2FmxCell%3E%3C%2Froot%3E%3C%2FmxGraphModel%3E&lt;/span&gt;" style="html=1;whiteSpace=wrap;" vertex="1" parent="1">
          <mxGeometry x="1297.4" y="420" width="130" height="50" as="geometry" />
        </mxCell>
        <mxCell id="HEydUZoRCnZwS2w4KeLg-36" value="&lt;b&gt;StockData&lt;/b&gt;" style="html=1;whiteSpace=wrap;" vertex="1" parent="1">
          <mxGeometry x="1167.4" y="540" width="130" height="50" as="geometry" />
        </mxCell>
        <mxCell id="HEydUZoRCnZwS2w4KeLg-37" value="&lt;b&gt;OrderData&lt;/b&gt;&lt;span style=&quot;color: rgba(0, 0, 0, 0); font-family: monospace; font-size: 0px; text-align: start; text-wrap-mode: nowrap;&quot;&gt;%3CmxGraphModel%3E%3Croot%3E%3CmxCell%20id%3D%220%22%2F%3E%3CmxCell%20id%3D%221%22%20parent%3D%220%22%2F%3E%3CmxCell%20id%3D%222%22%20value%3D%22%26lt%3Bb%26gt%3BChatbot%26lt%3B%2Fb%26gt%3B%22%20style%3D%22html%3D1%3BwhiteSpace%3Dwrap%3B%22%20vertex%3D%221%22%20parent%3D%221%22%3E%3CmxGeometry%20x%3D%22980%22%20y%3D%22534%22%20width%3D%22130%22%20height%3D%2250%22%20as%3D%22geometry%22%2F%3E%3C%2FmxCell%3E%3C%2Froot%3E%3C%2FmxGraphModel%3E&lt;/span&gt;" style="html=1;whiteSpace=wrap;" vertex="1" parent="1">
          <mxGeometry x="1132.6000000000001" y="450" width="130" height="50" as="geometry" />
        </mxCell>
        <mxCell id="HEydUZoRCnZwS2w4KeLg-38" value="&lt;b&gt;OrderData&lt;/b&gt;&lt;span style=&quot;color: rgba(0, 0, 0, 0); font-family: monospace; font-size: 0px; text-align: start; text-wrap-mode: nowrap;&quot;&gt;%3CmxGraphModel%3E%3Croot%3E%3CmxCell%20id%3D%220%22%2F%3E%3CmxCell%20id%3D%221%22%20parent%3D%220%22%2F%3E%3CmxCell%20id%3D%222%22%20value%3D%22%26lt%3Bb%26gt%3BChatbot%26lt%3B%2Fb%26gt%3B%22%20style%3D%22html%3D1%3BwhiteSpace%3Dwrap%3B%22%20vertex%3D%221%22%20parent%3D%221%22%3E%3CmxGeometry%20x%3D%22980%22%20y%3D%22534%22%20width%3D%22130%22%20height%3D%2250%22%20as%3D%22geometry%22%2F%3E%3C%2FmxCell%3E%3C%2Froot%3E%3C%2FmxGraphModel%3E&lt;/span&gt;" style="html=1;whiteSpace=wrap;" vertex="1" parent="1">
          <mxGeometry x="1120" y="400" width="130" height="50" as="geometry" />
        </mxCell>
        <mxCell id="HEydUZoRCnZwS2w4KeLg-39" value="&lt;b&gt;OrderData&lt;/b&gt;&lt;span style=&quot;color: rgba(0, 0, 0, 0); font-family: monospace; font-size: 0px; text-align: start; text-wrap-mode: nowrap;&quot;&gt;%3CmxGraphModel%3E%3Croot%3E%3CmxCell%20id%3D%220%22%2F%3E%3CmxCell%20id%3D%221%22%20parent%3D%220%22%2F%3E%3CmxCell%20id%3D%222%22%20value%3D%22%26lt%3Bb%26gt%3BChatbot%26lt%3B%2Fb%26gt%3B%22%20style%3D%22html%3D1%3BwhiteSpace%3Dwrap%3B%22%20vertex%3D%221%22%20parent%3D%221%22%3E%3CmxGeometry%20x%3D%22980%22%20y%3D%22534%22%20width%3D%22130%22%20height%3D%2250%22%20as%3D%22geometry%22%2F%3E%3C%2FmxCell%3E%3C%2Froot%3E%3C%2FmxGraphModel%3E&lt;/span&gt;" style="html=1;whiteSpace=wrap;" vertex="1" parent="1">
          <mxGeometry x="1230" y="380" width="130" height="50" as="geometry" />
        </mxCell>
        <mxCell id="HEydUZoRCnZwS2w4KeLg-40" value="&lt;b&gt;StockData&lt;/b&gt;&lt;span style=&quot;color: rgba(0, 0, 0, 0); font-family: monospace; font-size: 0px; text-align: start; text-wrap-mode: nowrap;&quot;&gt;%3CmxGraphModel%3E%3Croot%3E%3CmxCell%20id%3D%220%22%2F%3E%3CmxCell%20id%3D%221%22%20parent%3D%220%22%2F%3E%3CmxCell%20id%3D%222%22%20value%3D%22%26lt%3Bb%26gt%3BChatbot%26lt%3B%2Fb%26gt%3B%22%20style%3D%22html%3D1%3BwhiteSpace%3Dwrap%3B%22%20vertex%3D%221%22%20parent%3D%221%22%3E%3CmxGeometry%20x%3D%22980%22%20y%3D%22534%22%20width%3D%22130%22%20height%3D%2250%22%20as%3D%22geometry%22%2F%3E%3C%2FmxCell%3E%3C%2Froot%3E%3C%2FmxGraphModel%3E&lt;/span&gt;" style="html=1;whiteSpace=wrap;" vertex="1" parent="1">
          <mxGeometry x="1240" y="460" width="130" height="50" as="geometry" />
        </mxCell>
        <mxCell id="HEydUZoRCnZwS2w4KeLg-41" value="&lt;b&gt;StockData&lt;/b&gt;&lt;span style=&quot;color: rgba(0, 0, 0, 0); font-family: monospace; font-size: 0px; text-align: start; text-wrap-mode: nowrap;&quot;&gt;%3CmxGraphModel%3E%3Croot%3E%3CmxCell%20id%3D%220%22%2F%3E%3CmxCell%20id%3D%221%22%20parent%3D%220%22%2F%3E%3CmxCell%20id%3D%222%22%20value%3D%22%26lt%3Bb%26gt%3BChatbot%26lt%3B%2Fb%26gt%3B%22%20style%3D%22html%3D1%3BwhiteSpace%3Dwrap%3B%22%20vertex%3D%221%22%20parent%3D%221%22%3E%3CmxGeometry%20x%3D%22980%22%20y%3D%22534%22%20width%3D%22130%22%20height%3D%2250%22%20as%3D%22geometry%22%2F%3E%3C%2FmxCell%3E%3C%2Froot%3E%3C%2FmxGraphModel%3E&lt;/span&gt;" style="html=1;whiteSpace=wrap;" vertex="1" parent="1">
          <mxGeometry x="1277.4" y="480" width="130" height="50" as="geometry" />
        </mxCell>
        <mxCell id="HEydUZoRCnZwS2w4KeLg-42" value="&lt;b&gt;StockData&lt;/b&gt;&lt;span style=&quot;color: rgba(0, 0, 0, 0); font-family: monospace; font-size: 0px; text-align: start; text-wrap-mode: nowrap;&quot;&gt;%3CmxGraphModel%3E%3Croot%3E%3CmxCell%20id%3D%220%22%2F%3E%3CmxCell%20id%3D%221%22%20parent%3D%220%22%2F%3E%3CmxCell%20id%3D%222%22%20value%3D%22%26lt%3Bb%26gt%3BChatbot%26lt%3B%2Fb%26gt%3B%22%20style%3D%22html%3D1%3BwhiteSpace%3Dwrap%3B%22%20vertex%3D%221%22%20parent%3D%221%22%3E%3CmxGeometry%20x%3D%22980%22%20y%3D%22534%22%20width%3D%22130%22%20height%3D%2250%22%20as%3D%22geometry%22%2F%3E%3C%2FmxCell%3E%3C%2Froot%3E%3C%2FmxGraphModel%3E&lt;/span&gt;" style="html=1;whiteSpace=wrap;" vertex="1" parent="1">
          <mxGeometry x="1120" y="400" width="130" height="50" as="geometry" />
        </mxCell>
        <mxCell id="HEydUZoRCnZwS2w4KeLg-43" value="&lt;b&gt;OrderData&lt;/b&gt;" style="html=1;whiteSpace=wrap;" vertex="1" parent="1">
          <mxGeometry x="1290" y="510" width="130" height="50" as="geometry" />
        </mxCell>
        <mxCell id="HEydUZoRCnZwS2w4KeLg-44" value="&lt;b&gt;RefundData&lt;/b&gt;" style="html=1;whiteSpace=wrap;" vertex="1" parent="1">
          <mxGeometry x="1160" y="500" width="130" height="50" as="geometry" />
        </mxCell>
        <mxCell id="HEydUZoRCnZwS2w4KeLg-45" value="&lt;b&gt;RefundData&lt;/b&gt;" style="html=1;whiteSpace=wrap;" vertex="1" parent="1">
          <mxGeometry x="1302.6" y="420" width="130" height="50" as="geometry" />
        </mxCell>
        <mxCell id="HEydUZoRCnZwS2w4KeLg-46" value="" style="endArrow=open;html=1;rounded=0;exitX=0.188;exitY=1.051;exitDx=0;exitDy=0;exitPerimeter=0;entryX=0.5;entryY=0;entryDx=0;entryDy=0;dashed=1;endFill=0;" edge="1" parent="1" source="HEydUZoRCnZwS2w4KeLg-6" target="HEydUZoRCnZwS2w4KeLg-42">
          <mxGeometry width="50" height="50" relative="1" as="geometry">
            <mxPoint x="1360" y="350" as="sourcePoint" />
            <mxPoint x="1410" y="300" as="targetPoint" />
          </mxGeometry>
        </mxCell>
        <mxCell id="HEydUZoRCnZwS2w4KeLg-48" value="" style="endArrow=open;html=1;rounded=0;exitX=0.394;exitY=1.059;exitDx=0;exitDy=0;exitPerimeter=0;entryX=0.5;entryY=0;entryDx=0;entryDy=0;dashed=1;endFill=0;" edge="1" parent="1" source="HEydUZoRCnZwS2w4KeLg-6" target="HEydUZoRCnZwS2w4KeLg-39">
          <mxGeometry width="50" height="50" relative="1" as="geometry">
            <mxPoint x="1358" y="274" as="sourcePoint" />
            <mxPoint x="1195" y="410" as="targetPoint" />
          </mxGeometry>
        </mxCell>
        <mxCell id="HEydUZoRCnZwS2w4KeLg-49" value="" style="endArrow=open;html=1;rounded=0;exitX=0.72;exitY=0.999;exitDx=0;exitDy=0;exitPerimeter=0;entryX=0.696;entryY=0.041;entryDx=0;entryDy=0;dashed=1;endFill=0;entryPerimeter=0;" edge="1" parent="1" source="HEydUZoRCnZwS2w4KeLg-6" target="HEydUZoRCnZwS2w4KeLg-45">
          <mxGeometry width="50" height="50" relative="1" as="geometry">
            <mxPoint x="1368" y="284" as="sourcePoint" />
            <mxPoint x="1205" y="420" as="targetPoint" />
          </mxGeometry>
        </mxCell>
        <mxCell id="HEydUZoRCnZwS2w4KeLg-50" value="&lt;b&gt;&lt;font style=&quot;font-size: 24px;&quot;&gt;Singleton Pattern&lt;/font&gt;&lt;/b&gt;" style="text;html=1;align=center;verticalAlign=middle;whiteSpace=wrap;rounded=0;" vertex="1" parent="1">
          <mxGeometry x="310" y="50" width="250" height="30" as="geometry" />
        </mxCell>
        <mxCell id="HEydUZoRCnZwS2w4KeLg-51" value="&lt;b&gt;&lt;font style=&quot;font-size: 24px;&quot;&gt;Strategy Pattern&lt;/font&gt;&lt;/b&gt;" style="text;html=1;align=center;verticalAlign=middle;whiteSpace=wrap;rounded=0;" vertex="1" parent="1">
          <mxGeometry x="250" y="440" width="250" height="30" as="geometry" />
        </mxCell>
        <mxCell id="HEydUZoRCnZwS2w4KeLg-52" value="&lt;b&gt;&lt;font style=&quot;font-size: 24px;&quot;&gt;Observer Pattern&lt;/font&gt;&lt;/b&gt;" style="text;html=1;align=center;verticalAlign=middle;whiteSpace=wrap;rounded=0;" vertex="1" parent="1">
          <mxGeometry x="1250" y="706.5" width="250" height="30" as="geometry" />
        </mxCell>
        <mxCell id="HEydUZoRCnZwS2w4KeLg-53" value="&lt;b&gt;&lt;font style=&quot;font-size: 24px;&quot;&gt;Facade Pattern&lt;/font&gt;&lt;/b&gt;" style="text;html=1;align=center;verticalAlign=middle;whiteSpace=wrap;rounded=0;" vertex="1" parent="1">
          <mxGeometry x="1200" y="50" width="250" height="30" as="geometry" />
        </mxCell>
      </root>
    </mxGraphModel>
  </diagram>
</mxfile>
